<?xml version="1.0" encoding="utf-8"?>
<!-- Generator: Adobe Illustrator 21.0.2, SVG Export Plug-In . SVG Version: 6.00 Build 0)  -->
<svg version="1.1" id="Layer_1" xmlns="http://www.w3.org/2000/svg" xmlns:xlink="http://www.w3.org/1999/xlink" x="0px" y="0px"
	 viewBox="0 0 512 512" style="enable-background:new 0 0 512 512; fill: #0288D1;" xml:space="preserve">
<g>
	<path d="M0,94.6c2.2,2.1,4.9,3.9,6.4,6.3c27.5,45.4,59.3,87.5,94.9,126.8c0.9,1,1.6,2.1,1.5,4C61.2,199.5,17.5,169.2,0,115.4
		C0,108.5,0,101.6,0,94.6z"/>
	<path d="M231.6,282.9c-20.8,10.6-29.2,28.7-33.7,49.3c-4.2,19.6-14.5,38.6-6.7,59.6c-24.4-10.9-100.5-71.2-109.4-88.2
		c6.7,4.2,11.1,7,15.6,9.7c15.9,9.7,32.2,19,47.6,29.4c7.8,5.2,14.2,12.5,21,19c2.1,2,3.7,4.4,6.3,6.3
		c-13.3-27.8-20.4-56.5-15.2-87.3c0.5-2.7,2.5-5.2,4-8.2c-36-32.3-78.9-60.2-91.5-112.8c1.7-0.4,2.6-0.7,2.7-0.6
		c23.2,50.9,66.2,82.4,110.9,111.6c10.2,6.6,24.1,7.6,36.4,10.8C223.5,282.3,227.6,282.4,231.6,282.9z"/>
	<path d="M18.4,173.9c15.5,12.9,30.5,26.6,46.7,38.6c24.4,17.9,49.4,35.2,75,51.5c9.1,5.8,11.2,11,5,21.8
		c-48.3-30.9-98.6-58.4-128.4-109.9C17.2,175.2,17.8,174.5,18.4,173.9z"/>
	<path d="M25,213.9c2.5,1.6,5,3.1,7.4,4.7c34.9,23.1,69.5,46.5,104.7,69c9.2,5.9,11.8,12.2,8.5,23.8
		c-44.2-28.4-92.2-50.2-122.8-94.3C23.5,216,24.3,215,25,213.9z"/>
	<path d="M152.1,339.3c-40.2-24.9-80.2-46.9-108.4-84.7c18.1,11.7,36,23.5,54.2,35c12.5,7.9,25,16,38.2,22.7
		C146.6,317.6,151.4,325.4,152.1,339.3z"/>
</g>
<g>
	<path d="M225.9,404.6c-1.5-0.7-3-1.7-4.6-2.1c-20.9-4.7-28-14.6-23.6-35.7c3.5-16.5,7.9-32.9,13.2-48.8c7.6-23,24.1-34.7,49.3-35.3
		c24.5-0.6,49-0.5,73.5-0.1c29.6,0.5,38.2,13.6,27.8,42.1c-11.3,0-22.9,0-35.7,0c2.8-11.9-5.3-12.7-13.3-12.7
		c-15.2-0.1-30.4,0.2-45.6,0.4c-10.8,0.1-17.4,6-20.4,15.9c-3,9.9-5.9,19.8-8.1,29.9c-2.3,10.6,1.3,15.4,11.9,15.6
		c16.2,0.4,32.5,0.4,48.7,0c9.7-0.2,13.2-3.7,15.8-14.3c-14.2,0-28.1,0-41.7,0c-0.4-1.8-0.6-2.1-0.6-2.4c4-23.2,4-23.2,27.5-23.2
		c19.6,0,39.3,0,61.1,0c-5.3,17.1-9.5,33-15.3,48.2c-4.7,12.3-15.5,17.9-28.1,20.2c-3.7,0.7-7.4,1.6-11,2.5
		C279.9,404.6,252.9,404.6,225.9,404.6z"/>
	<path d="M383.6,404.6c-28-8.7-24.8-22.9-20.3-43.3c3.3-14.8,7.6-29.3,12.2-43.8c7.2-23,24-34,47.3-34.8c20.4-0.7,40.8-0.4,61.1,0
		c5.1,0.1,10.3,1.4,15.1,3.2c12.6,4.8,17,20.3,8.9,31c-1.2,1.5-4,2.4-6.1,2.5c-8.3,0.3-16.5,0.1-25.5,0.1
		c-0.4-9.2-6.7-10.5-13.6-10.5c-11.1-0.1-22.1-0.2-33.2,0c-14.5,0.3-20.3,6.4-21.5,22.2c24.7-7.2,49.7-5.8,74.6-3.1
		c15.9,1.7,21.3,8.8,18.7,24.6c-1.7,10.1-4.8,20.1-8.4,29.8c-4.2,11.1-12.9,17.5-24.7,19.8c-2.7,0.5-5.2,1.6-7.8,2.3
		C434.7,404.6,409.1,404.6,383.6,404.6z M427.5,377.1c0,0.3,0,0.5,0,0.8c8.9-0.7,17.9-0.6,26.7-2.3c8-1.5,10.7-8.6,10.4-15.8
		c-0.3-7.8-7.3-7.1-12.6-7.2c-12-0.3-24.1-0.2-36.1,0c-3.4,0.1-6.9,0.7-10,2c-7.1,3-9.7,9.6-8,16.1c0.8,2.9,7,5.5,11,6.2
		C415,377.9,421.3,377.1,427.5,377.1z"/>
</g>
</svg>
