<?xml version="1.0" encoding="iso-8859-1"?>
<!-- Generator: Adobe Illustrator 19.0.0, SVG Export Plug-In . SVG Version: 6.00 Build 0)  -->
<svg version="1.1" id="Capa_1" xmlns="http://www.w3.org/2000/svg" xmlns:xlink="http://www.w3.org/1999/xlink" x="0px" y="0px"
	 width="24" height="24"  viewBox="0 0 496 496" style="enable-background:new 0 0 496 496;" xml:space="preserve">
<g>
	<g>
		<g>
			<path d="M216,288H40c-4.418,0-8,3.582-8,8v144c0,4.418,3.582,8,8,8h176c4.418,0,8-3.582,8-8V296C224,291.582,220.418,288,216,288
				z M208,432H48V304h160V432z"/>
			<path d="M248,240h-0.8c-3.299-6.021-7.436-11.543-12.288-16.4l-2.512-2.512c-8.956-8.971-20.139-15.396-32.4-18.616V184h8
				c4.418,0,8-3.582,8-8v-48c0-4.418-3.582-8-8-8H48c-4.418,0-8,3.582-8,8v48c0,4.418,3.582,8,8,8h8v18.472
				c-12.261,3.22-23.444,9.645-32.4,18.616l-2.512,2.512c-4.852,4.857-8.989,10.379-12.288,16.4H8v1.536
				c-5.27,10.19-8.013,21.496-8,32.968V472c0,13.255,10.745,24,24,24h208c13.255,0,24-10.745,24-24V274.504
				c0.013-11.472-2.73-22.778-8-32.968V240z M56,136h144v32H56V136z M184,184v16.12c-0.84,0-1.664-0.12-2.504-0.12H74.504
				c-0.84,0-1.664,0.096-2.504,0.12V184H184z M32.4,234.912l2.512-2.512c10.479-10.533,24.735-16.438,39.592-16.4h106.992
				c14.857-0.038,29.113,5.867,39.592,16.4l2.512,2.512c1.585,1.606,3.073,3.305,4.456,5.088H27.944
				C29.327,238.217,30.815,236.518,32.4,234.912z M240,472c0,4.418-3.582,8-8,8H24c-4.418,0-8-3.582-8-8V274.504
				c0.016-6.304,1.098-12.56,3.2-18.504h217.6c2.102,5.944,3.184,12.2,3.2,18.504V472z"/>
			<polygon points="80,400 96,400 96,376 160,376 160,400 176,400 176,376 192,376 192,360 176,360 176,336 160,336 160,360 96,360
				96,336 80,336 80,360 64,360 64,376 80,376 			"/>
			<path d="M440,48V8c0-4.418-3.582-8-8-8h-48c-4.418,0-8,3.582-8,8v40c-30.911,0.04-55.96,25.089-56,56v232h-40
				c-4.418,0-8,3.581-8.001,7.999c0,0.294,0.016,0.588,0.049,0.881l16,144c0.449,4.053,3.874,7.12,7.952,7.12h160
				c22.08-0.026,39.974-17.92,40-40V104C495.96,73.089,470.912,48.04,440,48z M392,16h32v32h-32V16z M376,64h64
				c19.001,0.024,35.373,13.389,39.2,32H336.8C340.628,77.389,356.999,64.024,376,64z M336,112h16v48h-16V112z M336,224h16v48h-16
				V224z M386.624,480H303.2l-14.264-128H399.2L386.624,480z M456,480h-53.304l1.6-16h74.264
				C475.178,473.566,466.146,479.972,456,480z M480,448h-74.16L416,344.8c0.442-4.396-2.764-8.318-7.16-8.76
				c-0.279-0.028-0.56-0.041-0.84-0.04h-72v-48h144V448z M480,272H368v-16h112V272z M480,240H368v-16h112V240z M480,208H336v-32h144
				V208z M480,160H368v-16h112V160z M480,128H368v-16h112V128z"/>
		</g>
	</g>
</g>
<g>
</g>
<g>
</g>
<g>
</g>
<g>
</g>
<g>
</g>
<g>
</g>
<g>
</g>
<g>
</g>
<g>
</g>
<g>
</g>
<g>
</g>
<g>
</g>
<g>
</g>
<g>
</g>
<g>
</g>
</svg>
