<?xml version="1.0" encoding="iso-8859-1"?>
<!-- Generator: Adobe Illustrator 19.0.0, SVG Export Plug-In . SVG Version: 6.00 Build 0)  -->
<svg version="1.1" id="Layer_1" xmlns="http://www.w3.org/2000/svg" xmlns:xlink="http://www.w3.org/1999/xlink" x="0px" y="0px"
	 width="24" height="24" viewBox="0 0 301.686 301.686" style="enable-background:new 0 0 301.686 301.686;" xml:space="preserve">
<g>
	<g>
		<g>
			<circle cx="197.373" cy="273.041" r="4.95"/>
			<path d="M272.481,68.838c-4.158-5.016-8.778-9.24-13.794-12.672c7.854-1.122,14.124-8.052,14.124-16.17V16.368
				C272.811,7.524,265.287,0,256.443,0h-211.2c-8.91,0-16.368,7.458-16.368,16.368v23.628c0,8.118,6.27,15.048,14.124,16.17
				c-5.016,3.366-9.636,7.656-13.794,12.672c-11.55,14.058-17.952,32.802-17.952,52.668v105.138
				c0,19.866,6.402,38.544,17.952,52.668c11.88,14.454,27.918,22.374,45.078,22.374h153.12c17.16,0,33.198-7.92,45.078-22.374
				c11.55-14.058,17.952-32.802,17.952-52.668V121.506C290.433,101.574,284.031,82.896,272.481,68.838z M38.775,39.93V16.302
				c0-3.366,3.102-6.468,6.468-6.468h211.2c3.366,0,6.468,3.036,6.468,6.468V39.93c0,3.366-3.102,6.468-6.468,6.468h-29.04H74.283
				h-29.04C41.877,46.398,38.775,43.296,38.775,39.93z M74.283,56.298h153.12c24.684,0,45.54,20.79,51.414,48.774H22.869
				C28.743,77.088,49.599,56.298,74.283,56.298z M227.403,291.72H74.283c-24.684,0-45.54-20.79-51.414-48.774h256.014
				C272.943,270.93,252.087,291.72,227.403,291.72z M280.533,226.578c0,2.178-0.066,4.29-0.264,6.468h-0.066H21.483h-0.066
				c-0.198-2.112-0.264-4.29-0.264-6.468V121.44c0-2.178,0.066-4.29,0.264-6.468h0.066h258.72h0.066
				c0.198,2.112,0.264,4.29,0.264,6.468V226.578z"/>
			<path d="M215.985,277.992c0.132,0,0.33,0,0.462,0c9.966-0.99,20.394-5.016,27.984-10.626c2.178-1.65,2.64-4.752,0.99-6.93
				c-1.65-2.178-4.752-2.64-6.93-0.99c-6.072,4.488-14.916,7.854-23.034,8.646c-2.706,0.264-4.686,2.706-4.422,5.412
				C211.299,276.078,213.477,277.992,215.985,277.992z"/>
			<path d="M174.603,169.092h-35.574l26.73-26.598c1.914-1.914,1.914-5.082,0-6.996s-5.082-1.914-6.996,0l-35.178,35.046
				c-1.386,1.452-1.848,3.564-1.056,5.412c0.726,1.848,2.574,3.036,4.554,3.036h35.574l-26.73,26.598
				c-1.914,1.914-1.914,5.082,0,6.996c0.99,0.99,2.244,1.452,3.498,1.452c1.254,0,2.508-0.528,3.498-1.452l35.178-35.046
				c1.386-1.452,1.848-3.564,1.056-5.412C178.431,170.28,176.583,169.092,174.603,169.092z"/>
		</g>
	</g>
</g>
<g>
</g>
<g>
</g>
<g>
</g>
<g>
</g>
<g>
</g>
<g>
</g>
<g>
</g>
<g>
</g>
<g>
</g>
<g>
</g>
<g>
</g>
<g>
</g>
<g>
</g>
<g>
</g>
<g>
</g>
</svg>
